<?xml version="1.0" encoding="utf-8"?>
<!-- Generator: Adobe Illustrator 16.0.2, SVG Export Plug-In . SVG Version: 6.00 Build 0)  -->
<!DOCTYPE svg PUBLIC "-//W3C//DTD SVG 1.1//EN" "http://www.w3.org/Graphics/SVG/1.1/DTD/svg11.dtd">
<svg version="1.1" id="Layer_1" xmlns="http://www.w3.org/2000/svg" xmlns:xlink="http://www.w3.org/1999/xlink" x="0px" y="0px"
	 width="571.539px" height="150.864px" viewBox="0 0 571.539 150.864" enable-background="new 0 0 571.539 150.864"
	 xml:space="preserve">
<g>
	<path fill-rule="evenodd" clip-rule="evenodd" fill="#BCD02F" d="M560.477,0.379H424.277c-6.084,0-11.063,4.979-11.063,11.062
		v129.2c0,6.083,4.979,11.063,11.063,11.063h136.199c6.084,0,11.063-4.979,11.063-11.063v-129.2
		C571.539,5.357,566.561,0.379,560.477,0.379L560.477,0.379z"/>
	<path fill-rule="evenodd" clip-rule="evenodd" fill="#FB7224" d="M11.062,0h382.356c6.084,0,11.063,4.979,11.063,11.062v128.741
		c0,6.082-4.979,11.062-11.063,11.062H11.062C4.979,150.864,0,145.887,0,139.803V11.062C0,4.978,4.978,0,11.062,0L11.062,0z"/>
	
		<path fill-rule="evenodd" clip-rule="evenodd" fill="#FFFFFF" stroke="#878787" stroke-width="0.216" stroke-miterlimit="2.6131" d="
		M408.824,101.481c11.139,0,20.174,9.033,20.174,20.172c0,11.14-9.035,20.173-20.174,20.173s-20.172-9.033-20.172-20.173
		C388.652,110.515,397.686,101.481,408.824,101.481L408.824,101.481z"/>
	<path fill="#6F6F6E" d="M408.883,100.685c3.52,0,6.953,0.901,10.311,2.703c3.35,1.812,5.967,4.393,7.836,7.76
		c1.869,3.357,2.807,6.867,2.807,10.52c0,3.614-0.918,7.086-2.77,10.415c-1.84,3.339-4.43,5.929-7.748,7.77
		c-3.33,1.85-6.801,2.77-10.436,2.77c-3.633,0-7.113-0.92-10.434-2.77c-3.328-1.841-5.918-4.431-7.768-7.77
		c-1.859-3.329-2.779-6.801-2.779-10.415c0-3.652,0.938-7.162,2.816-10.52c1.879-3.367,4.496-5.948,7.854-7.76
		C401.922,101.586,405.365,100.685,408.883,100.685L408.883,100.685z M408.883,104.156c-2.949,0-5.814,0.759-8.602,2.267
		c-2.789,1.509-4.971,3.672-6.545,6.47c-1.576,2.808-2.363,5.729-2.363,8.774c0,3.017,0.779,5.909,2.324,8.68
		c1.547,2.77,3.709,4.932,6.488,6.479c2.779,1.546,5.672,2.324,8.697,2.324c3.018,0,5.92-0.778,8.699-2.324
		c2.779-1.547,4.932-3.709,6.469-6.479c1.537-2.771,2.305-5.663,2.305-8.68c0-3.045-0.777-5.967-2.342-8.774
		c-1.566-2.798-3.748-4.961-6.545-6.47C414.67,104.915,411.805,104.156,408.883,104.156L408.883,104.156z M399.684,133.249v-22.557
		h7.748c2.656,0,4.572,0.199,5.758,0.616s2.125,1.147,2.836,2.182c0.703,1.044,1.053,2.144,1.053,3.311
		c0,1.65-0.588,3.083-1.764,4.307s-2.74,1.906-4.686,2.058c0.797,0.333,1.441,0.731,1.916,1.196c0.91,0.892,2.021,2.38,3.34,4.477
		l2.75,4.411h-4.449l-2-3.557c-1.576-2.789-2.838-4.544-3.805-5.246c-0.664-0.521-1.641-0.778-2.922-0.778h-2.133v9.581H399.684
		L399.684,133.249z M403.326,120.557h4.42c2.105,0,3.547-0.322,4.314-0.948c0.77-0.626,1.158-1.461,1.158-2.504
		c0-0.664-0.189-1.262-0.561-1.793c-0.369-0.521-0.881-0.92-1.535-1.177c-0.664-0.266-1.879-0.389-3.662-0.389h-4.135V120.557
		L403.326,120.557z"/>
	<path fill="#FFFFFF" stroke="#FFFFFF" stroke-width="1.5673" stroke-miterlimit="2.6131" d="M59.48,50.373v69.408H37.378V50.373
		h-20.32V33.71h62.973v16.663H59.48L59.48,50.373z M120.136,95.094c-1.207-0.269-2.433-0.46-3.696-0.556l-4.444-0.114
		c-0.479,0-0.919,0.019-1.283,0.057v25.301H89.224V33.71l29.284-0.555h7.967c11.625,0,19.708,3.792,24.247,11.376
		c1.034,2.317,1.839,4.711,2.413,7.182c0.67,3.141,0.996,6.722,0.996,10.725v4.042c0,3.371-0.345,6.358-1.053,8.963
		c-0.575,2.068-1.398,4.003-2.471,5.842c-2.107,3.601-5.439,6.377-10.055,8.369c2.892,1.072,5.478,2.969,7.814,5.669
		c0.843,0.996,1.628,2.088,2.356,3.256c0.556,0.92,0.996,1.781,1.341,2.566c0.191,0.384,0.44,0.938,0.785,1.686l6.78,16.95h-22.715
		c-0.556-1.724-1.264-3.448-2.088-5.172l-2.068-4.979c-0.862-2.029-1.666-3.811-2.413-5.343c-1.13-2.471-2.298-4.348-3.524-5.65
		C125.058,96.837,122.817,95.649,120.136,95.094L120.136,95.094z M110.713,78.757c0.402,0.038,0.862,0.058,1.34,0.058l11.281,0.401
		c0.938,0.115,1.973,0.039,3.141-0.229c0.479-0.114,0.938-0.229,1.34-0.325c0.537-0.153,1.015-0.345,1.456-0.575
		c1.13-0.479,2.107-1.13,2.931-1.953c1.762-1.762,2.624-4.616,2.624-8.542v-6.282c0-4.673-0.651-7.814-1.954-9.423
		c-1.417-1.456-3.677-2.394-6.799-2.796c-3.39-0.459-8.523-0.364-15.36,0.268V78.757L110.713,78.757z M242.001,79.446
		c0,9.901-0.996,17.026-2.969,21.374c-2.93,6.837-7.373,11.816-13.368,14.92c-6.052,3.217-13.368,4.826-21.929,4.826
		s-15.877-1.609-21.949-4.826c-6.244-3.333-10.725-8.313-13.464-14.92c-1.896-3.927-2.854-11.051-2.854-21.374V33.71h21.374v50.103
		c0,8.196,1.188,13.233,3.543,15.149c1.973,2.7,6.435,4.155,13.349,4.386c6.952-0.23,11.376-1.686,13.234-4.386
		c2.222-1.916,3.313-6.838,3.313-14.806V33.71h21.719V79.446L242.001,79.446z M279.08,120.451c-4.405,0-9.25-0.287-14.517-0.843
		c-2.03-0.229-4.099-0.479-6.244-0.785l-4.979-0.785l-1.743-19.306l4.481,0.9l6.455,1.13c2.624,0.402,5.094,0.728,7.412,0.958
		c2.758,0.249,5.267,0.383,7.527,0.383c8.14,0,12.851-1.857,14.134-5.554c0.709-1.533,0.67-3.026-0.115-4.482
		c-0.785-1.608-2.451-3.007-4.998-4.156c-1.073-0.479-2.452-0.996-4.099-1.513l-4.827-1.456c-2.125-0.536-4.041-1.053-5.707-1.57
		c-2.183-0.689-4.156-1.397-5.957-2.145c-4.443-1.857-7.91-4.041-10.38-6.512c-2.355-2.49-3.869-5.574-4.539-9.193
		c-0.498-2.585-0.555-5.516-0.172-8.81c1.015-9.5,5.075-16.03,12.181-19.574c2.643-1.436,5.842-2.451,9.595-3.103
		c1.456-0.211,3.122-0.402,4.979-0.556l4.827-0.325h3.256c3.715,0,7.795,0.211,12.239,0.67l5.438,0.613l4.598,0.67l1.857,18.789
		c-2.432-0.594-5.496-1.13-9.193-1.609c-4.75-0.689-9.059-1.015-12.908-1.015c-8.542,0-13.541,1.915-15.035,5.784
		c-0.575,1.609-0.536,3.141,0.096,4.597c0.824,1.686,2.624,3.16,5.401,4.424c1.149,0.536,2.605,1.091,4.367,1.685l11.109,3.313
		c2.145,0.67,4.041,1.36,5.727,2.068c4.078,1.724,7.162,3.715,9.25,5.957c2.471,2.471,4.061,5.554,4.789,9.251
		c0.479,2.661,0.535,5.534,0.152,8.638c-0.996,9.441-5.057,15.973-12.162,19.593c-2.623,1.417-5.822,2.432-9.596,3.025
		c-1.475,0.23-3.121,0.422-4.998,0.575l-4.329,0.268H279.08L279.08,120.451z M365.266,50.373v69.408h-22.102V50.373h-20.32V33.71
		h62.973v16.663H365.266L365.266,50.373z"/>
	<path fill-rule="evenodd" clip-rule="evenodd" fill="#FFFFFF" d="M473.316,120.566h-25.172l-22.656-63.908h21.477l13.645,42.952
		l13.285-42.952h21.355L473.316,120.566L473.316,120.566z M554.006,64.609c1.598,2.977,2.416,9.15,2.416,18.56v37.397h-19.797
		V79.593c0-3.976-1.879-6.373-5.613-7.192c-1.639-0.16-2.918-0.2-3.857-0.12c-1.557,0.24-2.836,0.479-3.814,0.759
		c-1.639,0.479-3.156,1.139-4.555,1.997v45.529h-19.678V56.539h16.342l1.158,2.517c0.24,0.58,0.439,1.139,0.6,1.698
		c0.1-0.04,0.359-0.16,0.758-0.359l1.16-0.64c1.219-0.579,2.416-1.099,3.635-1.519c1.719-0.659,3.457-1.198,5.215-1.578
		c2.178-0.48,4.375-0.74,6.613-0.819c4.475-0.2,8.07,0.18,10.768,1.159C548.871,58.336,551.748,60.874,554.006,64.609
		L554.006,64.609z"/>
</g>
</svg>
